<svg width="38" height="33" viewBox="0 0 38 33" fill="none" xmlns="http://www.w3.org/2000/svg">
<path d="M18.6114 19.3808L17.912 19.1102L18.6114 19.3808ZM35.5538 31.8113C35.4358 32.2084 35.0183 32.4346 34.6212 32.3165L28.151 30.3932C27.754 30.2751 27.5278 29.8576 27.6458 29.4606C27.7639 29.0635 28.1814 28.8373 28.5784 28.9554L34.3297 30.665L36.0394 24.9137C36.1574 24.5167 36.5749 24.2905 36.972 24.4085C37.369 24.5266 37.5952 24.9441 37.4772 25.3412L35.5538 31.8113ZM0.90409 0.631495C1.21452 0.668768 1.53156 0.709446 1.85415 0.753812L1.64977 2.23982C1.33599 2.19667 1.02748 2.15708 0.725273 2.1208L0.90409 0.631495ZM3.75097 1.04951C4.37025 1.15782 5.00171 1.28024 5.63897 1.41852L5.32088 2.8844C4.70492 2.75074 4.09343 2.63217 3.49255 2.52708L3.75097 1.04951ZM7.51351 1.86983C8.13361 2.03475 8.75391 2.21619 9.36859 2.41579L8.90532 3.84246C8.31849 3.6519 7.72424 3.47802 7.12798 3.31944L7.51351 1.86983ZM11.1954 3.07289C11.8034 3.31472 12.4004 3.57744 12.9802 3.8629L12.3177 5.20864C11.7766 4.94224 11.2159 4.69535 10.641 4.46667L11.1954 3.07289ZM14.7012 4.81395C15.2693 5.16682 15.8123 5.54807 16.322 5.96012L15.379 7.12663C14.9223 6.75744 14.4306 6.41171 13.9097 6.08816L14.7012 4.81395ZM17.784 7.33603C18.2393 7.83941 18.6487 8.38011 19.0021 8.96065L17.7208 9.74061C17.4201 9.24652 17.0683 8.78096 16.6715 8.34216L17.784 7.33603ZM19.8787 10.8098C20.0991 11.4388 20.2581 12.1022 20.3489 12.801L18.8614 12.9943C18.7839 12.3979 18.6488 11.8359 18.4631 11.3056L19.8787 10.8098ZM20.4208 14.8258C20.3868 15.4625 20.3012 16.1224 20.1612 16.8062L18.6917 16.5053C18.8177 15.8897 18.8931 15.3037 18.9229 14.7458L20.4208 14.8258ZM19.6463 18.718C19.5447 19.0247 19.433 19.3358 19.3109 19.6514L17.912 19.1102C18.0255 18.8168 18.1288 18.529 18.2223 18.2465L19.6463 18.718ZM19.3109 19.6514C19.1793 19.9916 19.044 20.321 18.9053 20.6401L17.5297 20.042C17.66 19.7422 17.7875 19.4317 17.912 19.1102L19.3109 19.6514ZM17.9789 22.5299C17.6131 23.1917 17.2298 23.7965 16.832 24.3468L15.6164 23.468C15.9765 22.9698 16.3277 22.4166 16.666 21.8043L17.9789 22.5299ZM15.4419 25.9972C14.8971 26.5477 14.3341 27.0139 13.7595 27.4008L12.9218 26.1565C13.4096 25.8281 13.8966 25.4262 14.3757 24.9421L15.4419 25.9972ZM11.7763 28.4149C11.0374 28.6809 10.2975 28.8294 9.57235 28.8726L9.48303 27.3753C10.0641 27.3406 10.6631 27.2214 11.2682 27.0036L11.7763 28.4149ZM7.31366 28.6649C6.56614 28.479 5.86206 28.1815 5.22235 27.7929L6.00105 26.5109C6.51397 26.8224 7.07787 27.0606 7.67563 27.2092L7.31366 28.6649ZM3.48407 26.3378C2.98083 25.7658 2.56688 25.1168 2.26698 24.4123L3.64714 23.8248C3.8823 24.3772 4.20897 24.8909 4.61023 25.347L3.48407 26.3378ZM1.73658 22.1826C1.69026 21.4425 1.76589 20.6784 1.98016 19.9101L3.42501 20.3131C3.25579 20.9199 3.1978 21.5161 3.23365 22.0889L1.73658 22.1826ZM2.90297 17.8481C3.09474 17.5423 3.31082 17.2396 3.55195 16.9411L4.71877 17.8837C4.51391 18.1373 4.33277 18.3914 4.1738 18.645L2.90297 17.8481ZM3.55195 16.9411C3.77474 16.6653 4.00965 16.4078 4.25605 16.1684L5.3014 17.2441C5.09882 17.441 4.90439 17.6539 4.71877 17.8837L3.55195 16.9411ZM5.93233 14.9093C6.53885 14.5648 7.18347 14.3 7.85773 14.1087L8.26716 15.5517C7.70162 15.7122 7.1691 15.9319 6.67315 16.2136L5.93233 14.9093ZM9.88369 13.7545C10.5433 13.7038 11.221 13.709 11.9113 13.7648L11.7905 15.2599C11.171 15.2098 10.5725 15.206 9.99853 15.2501L9.88369 13.7545ZM13.8906 14.0528C14.5233 14.1835 15.1637 14.351 15.8086 14.5523L15.3617 15.9842C14.7603 15.7965 14.1677 15.6417 13.5871 15.5217L13.8906 14.0528ZM17.6662 15.219C18.262 15.46 18.8597 15.7274 19.4569 16.0189L18.7988 17.3668C18.2313 17.0898 17.6655 16.8368 17.1037 16.6096L17.6662 15.219ZM21.1881 16.9324C21.7476 17.2496 22.3048 17.5868 22.8578 17.9423L22.0466 19.204C21.5163 18.8631 20.9829 18.5403 20.4483 18.2373L21.1881 16.9324ZM24.4705 19.04C24.994 19.4163 25.5118 19.8084 26.0222 20.2149L25.0877 21.3882C24.5963 20.9969 24.0981 20.6197 23.5949 20.2579L24.4705 19.04ZM27.5156 21.4644C28.0021 21.8917 28.4798 22.3318 28.9468 22.7834L27.9042 23.8618C27.4544 23.4269 26.9943 23.003 26.5257 22.5914L27.5156 21.4644ZM30.3134 24.1702C30.7586 24.6446 31.1915 25.1294 31.6102 25.6233L30.4662 26.5934C30.064 26.1191 29.6479 25.6531 29.2196 25.1966L30.3134 24.1702ZM32.8327 27.1443C33.229 27.6655 33.6088 28.195 33.9702 28.7313L32.7262 29.5695C32.3813 29.0577 32.0182 28.5514 31.6386 28.0522L32.8327 27.1443ZM35.0136 30.388C35.1794 30.6707 35.3397 30.9549 35.4944 31.2404L34.1755 31.9549C34.029 31.6845 33.877 31.415 33.7196 31.1466L35.0136 30.388Z" fill="#7843E9"/>
</svg>
