<svg width="40" height="40" viewBox="0 0 40 40" fill="none" xmlns="http://www.w3.org/2000/svg">
<path d="M20 8.33301C18.4679 8.33301 16.9508 8.63478 15.5353 9.22108C14.1199 9.80738 12.8338 10.6667 11.7504 11.7501C9.56248 13.938 8.33331 16.9055 8.33331 19.9997C8.33331 25.1563 11.6816 29.5313 16.3133 31.083C16.8966 31.1763 17.0833 30.8147 17.0833 30.4997V28.528C13.8516 29.228 13.1633 26.9647 13.1633 26.9647C12.6266 25.6113 11.8683 25.2497 11.8683 25.2497C10.8066 24.5263 11.95 24.5497 11.95 24.5497C13.1166 24.6313 13.735 25.7513 13.735 25.7513C14.75 27.5247 16.465 26.9997 17.13 26.7197C17.235 25.9613 17.5383 25.448 17.865 25.1563C15.275 24.8647 12.5566 23.8613 12.5566 19.4163C12.5566 18.1213 13 17.083 13.7583 16.2547C13.6416 15.963 13.2333 14.7497 13.875 13.1747C13.875 13.1747 14.855 12.8597 17.0833 14.3647C18.005 14.108 19.0083 13.9797 20 13.9797C20.9916 13.9797 21.995 14.108 22.9166 14.3647C25.145 12.8597 26.125 13.1747 26.125 13.1747C26.7666 14.7497 26.3583 15.963 26.2416 16.2547C27 17.083 27.4433 18.1213 27.4433 19.4163C27.4433 23.873 24.7133 24.853 22.1116 25.1447C22.5316 25.5063 22.9166 26.218 22.9166 27.303V30.4997C22.9166 30.8147 23.1033 31.188 23.6983 31.083C28.33 29.5197 31.6666 25.1563 31.6666 19.9997C31.6666 18.4676 31.3649 16.9505 30.7786 15.535C30.1923 14.1196 29.3329 12.8334 28.2496 11.7501C27.1662 10.6667 25.8801 9.80738 24.4646 9.22108C23.0492 8.63478 21.5321 8.33301 20 8.33301Z" fill="white"/>
</svg>
