<svg width="40" height="41" viewBox="0 0 40 41" fill="none" xmlns="http://www.w3.org/2000/svg">
<rect y="0.5" width="40" height="40" rx="5" fill="white"/>
<path d="M20 10.5C18.6868 10.5 17.3864 10.7587 16.1732 11.2612C14.9599 11.7638 13.8575 12.5003 12.9289 13.4289C11.0536 15.3043 10 17.8478 10 20.5C10 24.92 12.87 28.67 16.84 30C17.34 30.08 17.5 29.77 17.5 29.5V27.81C14.73 28.41 14.14 26.47 14.14 26.47C13.68 25.31 13.03 25 13.03 25C12.12 24.38 13.1 24.4 13.1 24.4C14.1 24.47 14.63 25.43 14.63 25.43C15.5 26.95 16.97 26.5 17.54 26.26C17.63 25.61 17.89 25.17 18.17 24.92C15.95 24.67 13.62 23.81 13.62 20C13.62 18.89 14 18 14.65 17.29C14.55 17.04 14.2 16 14.75 14.65C14.75 14.65 15.59 14.38 17.5 15.67C18.29 15.45 19.15 15.34 20 15.34C20.85 15.34 21.71 15.45 22.5 15.67C24.41 14.38 25.25 14.65 25.25 14.65C25.8 16 25.45 17.04 25.35 17.29C26 18 26.38 18.89 26.38 20C26.38 23.82 24.04 24.66 21.81 24.91C22.17 25.22 22.5 25.83 22.5 26.76V29.5C22.5 29.77 22.66 30.09 23.17 30C27.14 28.66 30 24.92 30 20.5C30 19.1868 29.7413 17.8864 29.2388 16.6732C28.7362 15.4599 27.9997 14.3575 27.0711 13.4289C26.1425 12.5003 25.0401 11.7638 23.8268 11.2612C22.6136 10.7587 21.3132 10.5 20 10.5Z" fill="black"/>
</svg>
