<svg width="40" height="40" viewBox="0 0 40 40" fill="none" xmlns="http://www.w3.org/2000/svg">
<path d="M13.544 26.5V17.806H15.92V26.5H13.544ZM14.732 16.402C14.348 16.402 14.03 16.276 13.778 16.024C13.526 15.76 13.4 15.436 13.4 15.052C13.4 14.68 13.526 14.362 13.778 14.098C14.03 13.834 14.348 13.702 14.732 13.702C15.128 13.702 15.446 13.834 15.686 14.098C15.938 14.362 16.064 14.68 16.064 15.052C16.064 15.436 15.938 15.76 15.686 16.024C15.446 16.276 15.128 16.402 14.732 16.402ZM23.8588 26.5V21.514C23.8588 20.998 23.6968 20.578 23.3728 20.254C23.0488 19.93 22.6288 19.768 22.1128 19.768C21.7768 19.768 21.4768 19.84 21.2128 19.984C20.9488 20.128 20.7388 20.332 20.5828 20.596C20.4388 20.86 20.3668 21.166 20.3668 21.514L19.4488 21.046C19.4488 20.362 19.5928 19.768 19.8808 19.264C20.1808 18.748 20.5888 18.346 21.1048 18.058C21.6328 17.77 22.2268 17.626 22.8868 17.626C23.5228 17.626 24.0928 17.788 24.5968 18.112C25.1008 18.424 25.4968 18.838 25.7848 19.354C26.0728 19.858 26.2168 20.404 26.2168 20.992V26.5H23.8588ZM18.0088 26.5V17.806H20.3668V26.5H18.0088Z" fill="white"/>
</svg>
