<svg width="40" height="41" viewBox="0 0 40 41" fill="none" xmlns="http://www.w3.org/2000/svg">
<rect y="0.5" width="40" height="40" rx="5" fill="white"/>
<path d="M13.544 27V18.306H15.92V27H13.544ZM14.732 16.902C14.348 16.902 14.03 16.776 13.778 16.524C13.526 16.26 13.4 15.936 13.4 15.552C13.4 15.18 13.526 14.862 13.778 14.598C14.03 14.334 14.348 14.202 14.732 14.202C15.128 14.202 15.446 14.334 15.686 14.598C15.938 14.862 16.064 15.18 16.064 15.552C16.064 15.936 15.938 16.26 15.686 16.524C15.446 16.776 15.128 16.902 14.732 16.902ZM23.8588 27V22.014C23.8588 21.498 23.6968 21.078 23.3728 20.754C23.0488 20.43 22.6288 20.268 22.1128 20.268C21.7768 20.268 21.4768 20.34 21.2128 20.484C20.9488 20.628 20.7388 20.832 20.5828 21.096C20.4388 21.36 20.3668 21.666 20.3668 22.014L19.4488 21.546C19.4488 20.862 19.5928 20.268 19.8808 19.764C20.1808 19.248 20.5888 18.846 21.1048 18.558C21.6328 18.27 22.2268 18.126 22.8868 18.126C23.5228 18.126 24.0928 18.288 24.5968 18.612C25.1008 18.924 25.4968 19.338 25.7848 19.854C26.0728 20.358 26.2168 20.904 26.2168 21.492V27H23.8588ZM18.0088 27V18.306H20.3668V27H18.0088Z" fill="black"/>
</svg>
