<svg width="40" height="41" viewBox="0 0 40 41" fill="none" xmlns="http://www.w3.org/2000/svg">
<rect y="0.5" width="40" height="40" rx="5" fill="white"/>
<path d="M30.46 14.5C29.69 14.85 28.86 15.08 28 15.19C28.88 14.66 29.56 13.82 29.88 12.81C29.05 13.31 28.13 13.66 27.16 13.86C26.37 13 25.26 12.5 24 12.5C21.65 12.5 19.73 14.42 19.73 16.79C19.73 17.13 19.77 17.46 19.84 17.77C16.28 17.59 13.11 15.88 11 13.29C10.63 13.92 10.42 14.66 10.42 15.44C10.42 16.93 11.17 18.25 12.33 19C11.62 19 10.96 18.8 10.38 18.5V18.53C10.38 20.61 11.86 22.35 13.82 22.74C13.1908 22.9129 12.53 22.9369 11.89 22.81C12.1616 23.6625 12.6935 24.4084 13.411 24.9429C14.1285 25.4775 14.9954 25.7737 15.89 25.79C14.3737 26.9905 12.494 27.6394 10.56 27.63C10.22 27.63 9.88 27.61 9.54 27.57C11.44 28.79 13.7 29.5 16.12 29.5C24 29.5 28.33 22.96 28.33 17.29C28.33 17.1 28.33 16.92 28.32 16.73C29.16 16.13 29.88 15.37 30.46 14.5Z" fill="black"/>
</svg>
