<svg width="40" height="40" viewBox="0 0 40 40" fill="none" xmlns="http://www.w3.org/2000/svg">
<path d="M32.2033 13.0003C31.305 13.4087 30.3366 13.677 29.3333 13.8053C30.36 13.187 31.1533 12.207 31.5266 11.0287C30.5583 11.612 29.485 12.0203 28.3533 12.2537C27.4316 11.2503 26.1366 10.667 24.6666 10.667C21.925 10.667 19.685 12.907 19.685 15.672C19.685 16.0687 19.7316 16.4537 19.8133 16.8153C15.66 16.6053 11.9616 14.6103 9.49996 11.5887C9.0683 12.3237 8.8233 13.187 8.8233 14.097C8.8233 15.8353 9.6983 17.3753 11.0516 18.2503C10.2233 18.2503 9.4533 18.017 8.77663 17.667V17.702C8.77663 20.1287 10.5033 22.1587 12.79 22.6137C12.0559 22.8154 11.285 22.8434 10.5383 22.6953C10.8552 23.6899 11.4758 24.5601 12.3128 25.1837C13.1499 25.8074 14.1613 26.153 15.205 26.172C13.4359 27.5726 11.243 28.3296 8.98663 28.3187C8.58996 28.3187 8.1933 28.2953 7.79663 28.2487C10.0133 29.672 12.65 30.5003 15.4733 30.5003C24.6666 30.5003 29.7183 22.8703 29.7183 16.2553C29.7183 16.0337 29.7183 15.8237 29.7066 15.602C30.6866 14.902 31.5266 14.0153 32.2033 13.0003Z" fill="white"/>
</svg>
