<svg width="40" height="40" viewBox="0 0 40 40" fill="none" xmlns="http://www.w3.org/2000/svg">
<path d="M17.6667 23.4997L23.7217 19.9997L17.6667 16.4997V23.4997ZM31.1534 14.3647C31.305 14.913 31.41 15.648 31.48 16.5813C31.5617 17.5147 31.5967 18.3197 31.5967 19.0197L31.6667 19.9997C31.6667 22.5547 31.48 24.433 31.1534 25.6347C30.8617 26.6847 30.185 27.3613 29.135 27.653C28.5867 27.8047 27.5834 27.9097 26.0434 27.9797C24.5267 28.0613 23.1384 28.0963 21.855 28.0963L20 28.1663C15.1117 28.1663 12.0667 27.9797 10.865 27.653C9.81504 27.3613 9.13837 26.6847 8.84671 25.6347C8.69504 25.0863 8.59004 24.3513 8.52004 23.418C8.43837 22.4847 8.40337 21.6797 8.40337 20.9797L8.33337 19.9997C8.33337 17.4447 8.52004 15.5663 8.84671 14.3647C9.13837 13.3147 9.81504 12.638 10.865 12.3463C11.4134 12.1947 12.4167 12.0897 13.9567 12.0197C15.4734 11.938 16.8617 11.903 18.145 11.903L20 11.833C24.8884 11.833 27.9334 12.0197 29.135 12.3463C30.185 12.638 30.8617 13.3147 31.1534 14.3647Z" fill="white"/>
</svg>
