<svg width="40" height="41" viewBox="0 0 40 41" fill="none" xmlns="http://www.w3.org/2000/svg">
<rect y="0.5" width="40" height="40" rx="5" fill="white"/>
<path d="M18 23.5L23.19 20.5L18 17.5V23.5ZM29.56 15.67C29.69 16.14 29.78 16.77 29.84 17.57C29.91 18.37 29.94 19.06 29.94 19.66L30 20.5C30 22.69 29.84 24.3 29.56 25.33C29.31 26.23 28.73 26.81 27.83 27.06C27.36 27.19 26.5 27.28 25.18 27.34C23.88 27.41 22.69 27.44 21.59 27.44L20 27.5C15.81 27.5 13.2 27.34 12.17 27.06C11.27 26.81 10.69 26.23 10.44 25.33C10.31 24.86 10.22 24.23 10.16 23.43C10.09 22.63 10.06 21.94 10.06 21.34L10 20.5C10 18.31 10.16 16.7 10.44 15.67C10.69 14.77 11.27 14.19 12.17 13.94C12.64 13.81 13.5 13.72 14.82 13.66C16.12 13.59 17.31 13.56 18.41 13.56L20 13.5C24.19 13.5 26.8 13.66 27.83 13.94C28.73 14.19 29.31 14.77 29.56 15.67Z" fill="black"/>
</svg>
